<!-- Example SVG for moon icon -->
<svg xmlns="http://www.w3.org/2000/svg" viewBox="0 0 24 24" fill="currentColor">
  <path d="M20.494 15.417c-.37-.974-.986-1.789-1.767-2.373-.789-.584-1.755-.928-2.805-.928-1.05 0-2.016.344-2.805.928-.781.585-1.395 1.4-1.768 2.373-.37.973-.53 2.05-.53 3.2h-2.897c.18-1.844.797-3.55 1.797-4.95s2.683-2.63 4.45-3.134c.604-.18 1.22-.278 1.85-.278v-.1h.5v.1c.63 0 1.246.098 1.85.278 1.767.504 3.234 1.504 4.45 3.134s1.617 3.106 1.797 4.95h-2.896c0-1.15-.16-2.227-.53-3.2z"/>
</svg>
